<svg width="961" height="484" viewBox="0 0 961 484" fill="none" xmlns="http://www.w3.org/2000/svg">
<ellipse cx="483.192" cy="470.432" rx="73.1685" ry="13.5677" fill="#DADFED"/>
<path d="M484.359 146.413C398.902 146.413 329.625 204.412 329.625 275.958C329.626 347.503 398.902 405.503 484.359 405.503C569.816 405.503 639.093 347.503 639.093 275.958C639.093 204.412 569.816 146.413 484.359 146.413ZM498.107 282.366C502.99 280.801 508.543 284.507 510.51 290.643C512.478 296.78 510.115 303.024 505.232 304.59C500.349 306.155 494.796 302.449 492.829 296.312C490.861 290.175 493.224 283.931 498.107 282.366Z" fill="#FF1355"/>
<path d="M435.577 123.39C432.568 120.678 427.759 122.03 426.603 125.913L417.562 156.307C417.023 158.12 415.591 159.53 413.77 160.042L373.725 171.299C367.815 172.96 368.638 181.584 374.756 182.097L402.279 184.408C405.763 184.701 408.098 188.121 407.101 191.472L401.302 210.966C399.797 216.026 405.581 220.103 409.841 216.985L447.328 189.547C448.4 188.763 449.72 188.392 451.044 188.503L497.337 192.389C502.598 192.831 505.41 186.338 501.488 182.803L486.382 169.186C483.785 166.845 483.996 162.709 486.817 160.644L509.105 144.331C514.059 140.705 510.268 132.915 504.358 134.577L464.313 145.834C462.492 146.346 460.536 145.888 459.131 144.622L435.577 123.39Z" fill="#1FE765"/>
<path d="M580.326 362.233C633.567 361.582 663.173 381.032 671.321 390.839" stroke="#FF1355" stroke-width="16.5887" stroke-linecap="round"/>
<path d="M515.678 385.588C564.27 399.169 584.006 450.84 584.006 450.84" stroke="#FF1355" stroke-width="16.5887" stroke-linecap="round"/>
<path d="M614.162 247.917C649.001 207.652 683.197 198.408 695.94 198.819" stroke="#FF1355" stroke-width="16.5887" stroke-linecap="round"/>
<path d="M262.686 274.464C311.841 257.484 354.272 300.297 354.272 300.297" stroke="#FF1355" stroke-width="16.5888" stroke-linecap="round"/>
<circle cx="16.5885" cy="16.5885" r="16.5885" transform="matrix(-0.972625 0.23238 0.23238 0.972625 462.048 239.281)" fill="#111111"/>
<path d="M523.053 249.282C527.984 240.241 542.222 235.077 551.455 235.935" stroke="#111111" stroke-width="11.9809" stroke-linecap="round"/>
<path d="M829.388 236.38C807.018 203.434 804.594 203.185 757.504 228.976C802.77 200.113 803.714 197.87 785.495 162.468C807.865 195.414 810.289 195.663 857.379 169.872C812.113 198.735 811.169 200.978 829.388 236.38Z" fill="#1FE765"/>
<path d="M749.767 306.541C743.366 288.957 742.29 288.565 717.856 294.917C741.812 286.956 742.501 286.042 738.274 267.814C744.675 285.398 745.751 285.79 770.185 279.438C746.229 287.4 745.541 288.314 749.767 306.541Z" fill="#1FE765"/>
<path d="M164.071 230.842C183.836 206.296 183.212 204.144 145.564 167.027C185.144 202.084 187.337 202.564 210.572 181.262C190.808 205.807 191.432 207.959 229.08 245.077C189.499 210.02 187.307 209.54 164.071 230.842Z" fill="#1FE765"/>
<path d="M40.9023 279.114C43.0788 258.755 41.9801 257.796 8.32192 250.688C42.3124 255.991 43.6807 255.485 48.8976 235.684C46.7211 256.043 47.8198 257.001 81.4779 264.11C47.4875 258.806 46.1192 259.312 40.9023 279.114Z" fill="#1FE765"/>
<ellipse cx="7.08974" cy="7.07802" rx="7.08974" ry="7.07802" transform="matrix(0.902043 0.431231 -0.432837 0.901672 857.874 267.877)" fill="#1FE765"/>
<ellipse cx="4.97483" cy="4.96579" rx="4.97483" ry="4.96579" transform="matrix(0.939048 0.343432 -0.344769 0.938818 924.004 310.911)" fill="#1FE765"/>
<ellipse cx="6.3214" cy="6.3322" rx="6.3214" ry="6.3322" transform="matrix(0.083323 0.996358 -0.996713 0.0830094 183.167 309.81)" fill="#1FE765"/>
</svg>
