<svg width="151" height="151" viewBox="0 0 151 151" fill="none" xmlns="http://www.w3.org/2000/svg">
<g clip-path="url(#clip0_784_2429)">
<rect width="150" height="150" transform="translate(0.857422 0.699219)" fill="white"/>
<path d="M79.5039 -17.8535C6.68771 -17.8534 -52.3417 31.5669 -52.3418 92.5293C-52.3418 153.492 6.68764 202.912 79.5039 202.912C152.32 202.912 211.35 153.492 211.35 92.5293C211.349 31.5668 152.32 -17.8535 79.5039 -17.8535ZM91.2187 97.9893C95.3792 96.6556 100.111 99.813 101.787 105.042C103.464 110.271 101.45 115.592 97.2891 116.926C93.1287 118.259 88.3971 115.101 86.7207 109.872C85.0444 104.643 87.0583 99.3231 91.2187 97.9893Z" fill="#FF1355"/>
<path d="M37.9375 -37.4712C35.3733 -39.7825 31.2756 -38.6306 30.2913 -35.3218L22.5872 -9.42343C22.1277 -7.87863 20.9081 -6.67737 19.3566 -6.24121L-14.7652 3.35066C-19.8013 4.76635 -19.1001 12.1144 -13.8871 12.5521L9.56507 14.5212C12.5337 14.7704 14.5232 17.685 13.6738 20.5404L8.73276 37.1503C7.45014 41.4621 12.3783 44.9362 16.0083 42.2793L47.9501 18.9002C48.8639 18.2313 49.9886 17.9152 51.117 18.0099L90.5619 21.3218C95.0446 21.6981 97.4407 16.165 94.0994 13.1531L81.2276 1.55053C79.0148 -0.444072 79.1943 -3.96836 81.5982 -5.72788L100.589 -19.6281C104.811 -22.7178 101.581 -29.355 96.5445 -27.9393L62.4228 -18.3475C60.8713 -17.9113 59.2044 -18.3012 58.0073 -19.3803L37.9375 -37.4712Z" fill="#1FE765"/>
<circle cx="14.1348" cy="14.1348" r="14.1348" transform="matrix(-0.972625 0.23238 0.23238 0.972625 60.4932 61.2783)" fill="#111111"/>
<path d="M112.473 69.7998C116.675 62.0959 128.807 57.6956 136.674 58.4275" stroke="#111111" stroke-width="10.2087" stroke-linecap="round"/>
</g>
<defs>
<clipPath id="clip0_784_2429">
<rect width="150" height="150" fill="white" transform="translate(0.857422 0.699219)"/>
</clipPath>
</defs>
</svg>
