<svg width="892" height="292" viewBox="0 0 892 292" fill="none" xmlns="http://www.w3.org/2000/svg">
<path d="M125.181 2.10166V38.2087H86.6117V147.351H41.0676V38.2087H2.90896V2.10166H125.181ZM159.69 71.4437C159.69 80.0601 160.374 88.5398 161.741 96.8827C163.246 105.226 165.571 112.816 168.717 119.655C171.862 126.357 176.034 131.759 181.231 135.862C186.565 139.828 193.061 141.811 200.721 141.811L198.669 150.428C183.351 150.428 170.153 147.282 159.074 140.991C147.996 134.699 139.516 125.946 133.635 114.731C127.754 103.516 124.814 90.4546 124.814 75.5467C124.814 60.6389 127.823 47.5774 133.84 36.3623C139.858 25.1473 148.406 16.394 159.485 10.1027C170.563 3.81127 183.624 0.665573 198.669 0.665573L196.617 9.28203C187.454 9.28203 180.137 12.0858 174.666 17.6933C169.332 23.1641 165.502 30.618 163.177 40.0551C160.852 49.4922 159.69 59.955 159.69 71.4437ZM237.648 79.6498C237.648 71.0334 236.896 62.5537 235.392 54.2107C234.024 45.8678 231.767 38.3455 228.621 31.6438C225.476 24.8053 221.236 19.403 215.902 15.4367C210.705 11.3336 204.277 9.28203 196.617 9.28203L198.669 0.665573C214.124 0.665573 227.322 3.81127 238.264 10.1027C249.342 16.394 257.822 25.1473 263.703 36.3623C269.584 47.5774 272.524 60.6389 272.524 75.5467C272.524 90.4546 269.515 103.516 263.498 114.731C257.48 125.946 248.932 134.699 237.853 140.991C226.775 147.282 213.714 150.428 198.669 150.428L200.721 141.811C210.021 141.811 217.338 139.008 222.672 133.4C228.006 127.793 231.836 120.339 234.161 111.038C236.486 101.601 237.648 91.1384 237.648 79.6498ZM459.093 2.10166V147.351H413.754V74.9313L391.392 147.351H352.413L330.051 74.9313V147.351H284.507V2.10166H340.309L372.313 89.292L403.496 2.10166H459.093ZM572.783 125.399H524.367L517.186 147.351H469.386L522.52 2.10166H575.04L627.97 147.351H579.963L572.783 125.399ZM561.705 91.1384L548.575 50.7231L535.445 91.1384H561.705ZM731.867 2.10166V38.2087H693.298V147.351H647.754V38.2087H609.595V2.10166H731.867ZM768.428 71.4437C768.428 80.0601 769.112 88.5398 770.479 96.8827C771.984 105.226 774.309 112.816 777.455 119.655C780.6 126.357 784.772 131.759 789.969 135.862C795.303 139.828 801.799 141.811 809.459 141.811L807.407 150.428C792.089 150.428 778.891 147.282 767.812 140.991C756.734 134.699 748.254 125.946 742.373 114.731C736.492 103.516 733.552 90.4546 733.552 75.5467C733.552 60.6389 736.561 47.5774 742.578 36.3623C748.596 25.1473 757.144 16.394 768.223 10.1027C779.301 3.81127 792.362 0.665573 807.407 0.665573L805.355 9.28203C796.192 9.28203 788.875 12.0858 783.404 17.6933C778.07 23.1641 774.24 30.618 771.915 40.0551C769.59 49.4922 768.428 59.955 768.428 71.4437ZM846.386 79.6498C846.386 71.0334 845.634 62.5537 844.13 54.2107C842.762 45.8678 840.505 38.3455 837.359 31.6438C834.214 24.8053 829.974 19.403 824.64 15.4367C819.443 11.3336 813.015 9.28203 805.355 9.28203L807.407 0.665573C822.862 0.665573 836.06 3.81127 847.002 10.1027C858.08 16.394 866.56 25.1473 872.441 36.3623C878.322 47.5774 881.262 60.6389 881.262 75.5467C881.262 90.4546 878.253 103.516 872.236 114.731C866.218 125.946 857.67 134.699 846.591 140.991C835.513 147.282 822.452 150.428 807.407 150.428L809.459 141.811C818.759 141.811 826.076 139.008 831.41 133.4C836.744 127.793 840.574 120.339 842.899 111.038C845.224 101.601 846.386 91.1384 846.386 79.6498Z" fill="#FF1355"/>
<path d="M98.6873 198.887C98.6873 204.474 97.3946 209.562 94.8092 214.149C92.2239 218.652 88.3875 222.238 83.3001 224.907C78.2962 227.576 72.208 228.91 65.0357 228.91H54.0269V257.058H26.255V168.487H65.0357C75.8776 168.487 84.1758 171.24 89.9304 176.744C95.7683 182.248 98.6873 189.629 98.6873 198.887ZM61.9082 207.018C67.6627 207.018 70.54 204.308 70.54 198.887C70.54 193.466 67.6627 190.755 61.9082 190.755H54.0269V207.018H61.9082ZM135.546 192.101C131.863 192.101 128.976 193.346 126.885 195.834C124.894 198.224 123.451 201.559 122.555 205.839C121.758 210.02 121.36 214.898 121.36 220.473C121.36 226.147 121.808 231.523 122.704 236.6C123.6 241.578 125.143 245.609 127.333 248.695C129.623 251.781 132.858 253.324 137.039 253.324L136.293 259.297C129.324 259.297 123.053 257.904 117.478 255.116C112.003 252.329 107.672 248.198 104.487 242.722C101.301 237.247 99.7081 230.577 99.7081 222.713C99.7081 215.048 101.301 208.527 104.487 203.151C107.672 197.676 112.003 193.495 117.478 190.608C123.053 187.622 129.324 186.128 136.293 186.128L135.546 192.101ZM137.039 253.324C140.723 253.324 143.56 252.13 145.551 249.741C147.641 247.252 149.085 243.867 149.881 239.587C150.777 235.306 151.225 230.428 151.225 224.953C151.225 219.179 150.777 213.803 149.881 208.826C148.985 203.848 147.393 199.816 145.103 196.73C142.913 193.644 139.727 192.101 135.546 192.101L136.293 186.128C143.261 186.128 149.483 187.522 154.958 190.309C160.533 193.097 164.913 197.228 168.099 202.703C171.285 208.079 172.877 214.749 172.877 222.713C172.877 230.279 171.285 236.799 168.099 242.274C164.913 247.75 160.533 251.981 154.958 254.967C149.483 257.854 143.261 259.297 136.293 259.297L137.039 253.324ZM206.951 199.512C209.787 195.425 213.248 192.173 217.334 189.754C221.421 187.252 225.674 186.001 230.094 186.001V215.65H222.213C216.959 215.65 213.081 216.567 210.579 218.402C208.16 220.237 206.951 223.489 206.951 228.16V257.058H179.179V186.502H206.951V199.512ZM283.987 233.414V257.058H273.478C254.13 257.058 244.455 247.425 244.455 228.16V209.645H235.698V186.502H244.455V169.488H272.227V186.502H283.736V209.645H272.227V228.66C272.227 230.328 272.603 231.537 273.353 232.288C274.187 233.039 275.522 233.414 277.356 233.414H283.987ZM335.221 181.498C333.719 181.331 332.677 181.248 332.093 181.248C330.008 181.248 328.423 181.665 327.339 182.499C326.255 183.249 325.504 184.584 325.087 186.502H335.221V209.645H324.837V257.058H297.065V209.645H289.559V186.502H297.065C297.232 177.328 300.109 170.239 305.697 165.235C311.368 160.148 319.291 157.604 329.466 157.604C330.634 157.604 332.552 157.687 335.221 157.854V181.498ZM377.002 192.101C373.319 192.101 370.432 193.346 368.341 195.834C366.35 198.224 364.907 201.559 364.011 205.839C363.214 210.02 362.816 214.898 362.816 220.473C362.816 226.147 363.264 231.523 364.16 236.6C365.056 241.578 366.599 245.609 368.789 248.695C371.079 251.781 374.314 253.324 378.495 253.324L377.749 259.297C370.78 259.297 364.509 257.904 358.934 255.116C353.459 252.329 349.128 248.198 345.943 242.722C342.757 237.247 341.164 230.577 341.164 222.713C341.164 215.048 342.757 208.527 345.943 203.151C349.128 197.676 353.459 193.495 358.934 190.608C364.509 187.622 370.78 186.128 377.749 186.128L377.002 192.101ZM378.495 253.324C382.179 253.324 385.016 252.13 387.007 249.741C389.097 247.252 390.541 243.867 391.337 239.587C392.233 235.306 392.681 230.428 392.681 224.953C392.681 219.179 392.233 213.803 391.337 208.826C390.441 203.848 388.849 199.816 386.559 196.73C384.369 193.644 381.183 192.101 377.002 192.101L377.749 186.128C384.717 186.128 390.939 187.522 396.414 190.309C401.989 193.097 406.369 197.228 409.555 202.703C412.741 208.079 414.333 214.749 414.333 222.713C414.333 230.279 412.741 236.799 409.555 242.274C406.369 247.75 401.989 251.981 396.414 254.967C390.939 257.854 384.717 259.297 377.749 259.297L378.495 253.324ZM448.407 164.484V257.058H420.635V164.484H448.407ZM471.208 180.872C466.371 180.872 462.493 179.58 459.574 176.994C456.655 174.409 455.196 171.156 455.196 167.236C455.196 163.233 456.655 159.939 459.574 157.354C462.493 154.685 466.371 153.35 471.208 153.35C475.962 153.35 479.798 154.685 482.717 157.354C485.636 159.939 487.096 163.233 487.096 167.236C487.096 171.156 485.636 174.409 482.717 176.994C479.798 179.58 475.962 180.872 471.208 180.872ZM484.969 186.502V257.058H457.197V186.502H484.969ZM529.315 192.101C525.632 192.101 522.745 193.346 520.654 195.834C518.663 198.224 517.22 201.559 516.324 205.839C515.528 210.02 515.129 214.898 515.129 220.473C515.129 226.147 515.577 231.523 516.473 236.6C517.369 241.578 518.912 245.609 521.102 248.695C523.392 251.781 526.627 253.324 530.809 253.324L530.062 259.297C523.093 259.297 516.822 257.904 511.247 255.116C505.772 252.329 501.441 248.198 498.256 242.722C495.07 237.247 493.477 230.577 493.477 222.713C493.477 215.048 495.07 208.527 498.256 203.151C501.441 197.676 505.772 193.495 511.247 190.608C516.822 187.622 523.093 186.128 530.062 186.128L529.315 192.101ZM530.809 253.324C534.492 253.324 537.329 252.13 539.32 249.741C541.411 247.252 542.854 243.867 543.65 239.587C544.546 235.306 544.994 230.428 544.994 224.953C544.994 219.179 544.546 213.803 543.65 208.826C542.755 203.848 541.162 199.816 538.872 196.73C536.682 193.644 533.496 192.101 529.315 192.101L530.062 186.128C537.03 186.128 543.252 187.522 548.728 190.309C554.302 193.097 558.683 197.228 561.868 202.703C565.054 208.079 566.647 214.749 566.647 222.713C566.647 230.279 565.054 236.799 561.868 242.274C558.683 247.75 554.302 251.981 548.728 254.967C543.252 257.854 537.03 259.297 530.062 259.297L530.809 253.324Z" fill="#FF1355"/>
<path d="M27.3138 287.975C27.3138 287.773 27.3138 287.368 27.3138 286.76C27.3138 286.138 27.3138 285.408 27.3138 284.569C27.3138 283.716 27.3138 282.827 27.3138 281.901C27.3138 280.962 27.3138 280.05 27.3138 279.168C27.3138 278.286 27.3138 277.505 27.3138 276.826C27.3138 276.146 27.3138 275.654 27.3138 275.351C27.3138 275.047 27.2993 274.678 27.2704 274.245C27.2415 273.811 27.1981 273.427 27.1403 273.095H29.266C29.2371 273.413 29.2009 273.789 29.1575 274.223C29.1286 274.657 29.1142 275.033 29.1142 275.351C29.1142 275.915 29.1142 276.594 29.1142 277.39C29.1142 278.171 29.1142 279.009 29.1142 279.906C29.1142 280.788 29.1142 281.67 29.1142 282.552C29.1286 283.42 29.1359 284.237 29.1359 285.003C29.1359 285.755 29.1359 286.399 29.1359 286.934C29.1359 287.454 29.1359 287.801 29.1359 287.975C29.1359 288.206 29.1359 288.474 29.1359 288.778C29.1503 289.081 29.172 289.392 29.2009 289.71C29.2299 290.014 29.2515 290.289 29.266 290.535H27.162C27.2198 290.187 27.256 289.775 27.2704 289.298C27.2993 288.821 27.3138 288.38 27.3138 287.975ZM28.7454 278.778C29.454 278.995 30.2349 279.255 31.0881 279.559C31.9557 279.848 32.8378 280.159 33.7344 280.492C34.6309 280.824 35.4769 281.164 36.2722 281.511C37.082 281.844 37.7834 282.162 38.3763 282.465L37.6388 284.309C37.017 283.962 36.3156 283.622 35.5347 283.29C34.7539 282.943 33.9513 282.603 33.127 282.27C32.3172 281.938 31.5291 281.641 30.7627 281.381C30.0107 281.106 29.3383 280.882 28.7454 280.708V278.778ZM61.846 276.132C61.7448 276.247 61.6436 276.363 61.5424 276.479C61.4411 276.58 61.3616 276.688 61.3038 276.804C60.8989 277.469 60.4072 278.192 59.8288 278.973C59.2648 279.754 58.6213 280.557 57.8983 281.381C57.1752 282.205 56.3871 283.015 55.5339 283.81C54.6952 284.606 53.7914 285.35 52.8225 286.044L51.4777 284.851C52.3598 284.244 53.1841 283.586 53.9505 282.878C54.7169 282.169 55.4182 281.453 56.0545 280.73C56.7052 279.993 57.2692 279.291 57.7464 278.626C58.2381 277.961 58.6213 277.368 58.896 276.847C58.6213 276.847 58.2092 276.847 57.6597 276.847C57.1101 276.847 56.4739 276.847 55.7508 276.847C55.0278 276.847 54.2614 276.847 53.4516 276.847C52.6562 276.847 51.8609 276.847 51.0656 276.847C50.2847 276.847 49.5544 276.847 48.8748 276.847C48.1951 276.847 47.6094 276.847 47.1178 276.847C46.6406 276.847 46.3152 276.847 46.1417 276.847C45.8669 276.847 45.5849 276.855 45.2957 276.869C45.0065 276.884 44.739 276.898 44.4932 276.913C44.2618 276.927 44.0738 276.949 43.9292 276.978V275.025C44.1316 275.054 44.3558 275.083 44.6016 275.112C44.8474 275.141 45.1005 275.163 45.3608 275.177C45.6356 275.192 45.8958 275.199 46.1417 275.199C46.3007 275.199 46.6117 275.199 47.0744 275.199C47.5516 275.199 48.13 275.199 48.8097 275.199C49.4893 275.199 50.2196 275.199 51.0005 275.199C51.7958 275.199 52.5984 275.199 53.4082 275.199C54.2325 275.199 55.0133 275.199 55.7508 275.199C56.5028 275.199 57.168 275.199 57.7464 275.199C58.3248 275.199 58.7659 275.199 59.0696 275.199C59.6914 275.199 60.1614 275.141 60.4795 275.025L61.846 276.132ZM51.6295 286.435C51.2969 286.102 50.9065 285.734 50.4582 285.329C50.0244 284.924 49.5689 284.519 49.0917 284.114C48.6145 283.695 48.1662 283.319 47.7468 282.986C47.3275 282.639 46.9659 282.364 46.6623 282.162L48.0722 281.012C48.318 281.2 48.6434 281.46 49.0483 281.793C49.4532 282.111 49.8942 282.473 50.3714 282.878C50.8631 283.282 51.3475 283.695 51.8247 284.114C52.302 284.533 52.7358 284.938 53.1262 285.329C53.589 285.762 54.0662 286.24 54.5578 286.76C55.064 287.281 55.5412 287.787 55.9894 288.279C56.4377 288.77 56.8137 289.211 57.1174 289.602L55.5339 290.86C55.2736 290.484 54.9193 290.043 54.4711 289.537C54.0372 289.016 53.5673 288.488 53.0611 287.953C52.555 287.404 52.0778 286.898 51.6295 286.435ZM70.696 287.975C70.696 287.773 70.696 287.368 70.696 286.76C70.696 286.138 70.696 285.408 70.696 284.569C70.696 283.716 70.696 282.827 70.696 281.901C70.696 280.962 70.696 280.05 70.696 279.168C70.696 278.286 70.696 277.505 70.696 276.826C70.696 276.146 70.696 275.654 70.696 275.351C70.696 275.047 70.6815 274.678 70.6526 274.245C70.6237 273.811 70.5803 273.427 70.5225 273.095H72.6482C72.6193 273.413 72.5831 273.789 72.5397 274.223C72.5108 274.657 72.4964 275.033 72.4964 275.351C72.4964 275.915 72.4964 276.594 72.4964 277.39C72.4964 278.171 72.4964 279.009 72.4964 279.906C72.4964 280.788 72.4964 281.67 72.4964 282.552C72.5108 283.42 72.5181 284.237 72.5181 285.003C72.5181 285.755 72.5181 286.399 72.5181 286.934C72.5181 287.454 72.5181 287.801 72.5181 287.975C72.5181 288.206 72.5181 288.474 72.5181 288.778C72.5325 289.081 72.5542 289.392 72.5831 289.71C72.612 290.014 72.6337 290.289 72.6482 290.535H70.5442C70.602 290.187 70.6382 289.775 70.6526 289.298C70.6815 288.821 70.696 288.38 70.696 287.975ZM72.1276 278.778C72.8362 278.995 73.6171 279.255 74.4703 279.559C75.3379 279.848 76.22 280.159 77.1166 280.492C78.0131 280.824 78.8591 281.164 79.6544 281.511C80.4642 281.844 81.1656 282.162 81.7585 282.465L81.021 284.309C80.3992 283.962 79.6978 283.622 78.9169 283.29C78.136 282.943 77.3335 282.603 76.5092 282.27C75.6994 281.938 74.9113 281.641 74.1449 281.381C73.3929 281.106 72.7205 280.882 72.1276 280.708V278.778ZM97.311 275.069C97.1664 276.197 96.9784 277.375 96.747 278.604C96.5301 279.834 96.2481 281.027 95.9011 282.183C95.4672 283.673 94.9828 284.917 94.4477 285.914C93.9272 286.912 93.3632 287.664 92.7558 288.17C92.1485 288.676 91.5122 288.929 90.847 288.929C90.2108 288.929 89.5962 288.698 89.0033 288.235C88.4104 287.773 87.926 287.107 87.55 286.24C87.174 285.358 86.986 284.324 86.986 283.138C86.986 281.952 87.2246 280.831 87.7018 279.776C88.1935 278.72 88.8659 277.787 89.7191 276.978C90.5867 276.153 91.599 275.503 92.7558 275.025C93.9127 274.548 95.1491 274.31 96.465 274.31C97.7376 274.31 98.88 274.519 99.8922 274.939C100.919 275.358 101.794 275.936 102.517 276.674C103.24 277.397 103.797 278.243 104.187 279.212C104.577 280.166 104.773 281.193 104.773 282.292C104.773 283.81 104.447 285.148 103.797 286.305C103.16 287.462 102.235 288.402 101.02 289.125C99.8199 289.848 98.3594 290.325 96.6386 290.556L95.6191 288.951C95.9661 288.908 96.2987 288.864 96.6169 288.821C96.935 288.778 97.2242 288.727 97.4845 288.669C98.1786 288.51 98.851 288.264 99.5018 287.932C100.167 287.585 100.76 287.151 101.28 286.63C101.801 286.095 102.213 285.466 102.517 284.743C102.835 284.006 102.994 283.167 102.994 282.227C102.994 281.345 102.849 280.528 102.56 279.776C102.271 279.009 101.844 278.337 101.28 277.758C100.716 277.18 100.03 276.725 99.2198 276.392C98.41 276.059 97.4845 275.893 96.4433 275.893C95.2576 275.893 94.1802 276.11 93.2114 276.544C92.2569 276.978 91.4399 277.549 90.7603 278.257C90.0951 278.951 89.5817 279.718 89.2202 280.557C88.8587 281.381 88.6779 282.191 88.6779 282.986C88.6779 283.897 88.7936 284.649 89.025 285.242C89.2708 285.82 89.56 286.247 89.8926 286.522C90.2397 286.796 90.5795 286.934 90.9121 286.934C91.2592 286.934 91.6134 286.768 91.975 286.435C92.3365 286.088 92.7052 285.538 93.0812 284.786C93.4572 284.02 93.8259 283.029 94.1875 281.815C94.5056 280.774 94.7731 279.667 94.99 278.496C95.2214 277.325 95.3877 276.175 95.4889 275.047L97.311 275.069ZM123.145 273.854C123.145 274.245 123.275 274.577 123.536 274.852C123.81 275.112 124.136 275.242 124.512 275.242C124.902 275.242 125.235 275.112 125.509 274.852C125.784 274.577 125.922 274.245 125.922 273.854C125.922 273.464 125.784 273.138 125.509 272.878C125.235 272.603 124.902 272.466 124.512 272.466C124.136 272.466 123.81 272.603 123.536 272.878C123.275 273.138 123.145 273.464 123.145 273.854ZM122.147 273.854C122.147 273.42 122.256 273.023 122.473 272.661C122.69 272.3 122.972 272.01 123.319 271.793C123.68 271.577 124.078 271.468 124.512 271.468C124.96 271.468 125.365 271.577 125.726 271.793C126.088 272.01 126.37 272.3 126.572 272.661C126.789 273.023 126.898 273.42 126.898 273.854C126.898 274.288 126.789 274.686 126.572 275.047C126.37 275.409 126.088 275.698 125.726 275.915C125.365 276.117 124.96 276.218 124.512 276.218C124.078 276.218 123.68 276.117 123.319 275.915C122.972 275.698 122.69 275.409 122.473 275.047C122.256 274.686 122.147 274.288 122.147 273.854ZM118.525 273.16C118.51 273.261 118.489 273.406 118.46 273.594C118.445 273.782 118.431 273.977 118.416 274.179C118.402 274.382 118.395 274.563 118.395 274.722C118.395 275.098 118.395 275.532 118.395 276.023C118.395 276.515 118.395 276.999 118.395 277.476C118.395 277.954 118.395 278.373 118.395 278.735C118.395 279.024 118.395 279.443 118.395 279.993C118.395 280.542 118.395 281.164 118.395 281.858C118.395 282.552 118.395 283.268 118.395 284.006C118.395 284.729 118.395 285.43 118.395 286.11C118.395 286.789 118.395 287.389 118.395 287.91C118.395 288.43 118.395 288.821 118.395 289.081C118.395 289.66 118.25 290.093 117.961 290.383C117.672 290.672 117.194 290.817 116.529 290.817C116.226 290.817 115.886 290.809 115.51 290.795C115.148 290.78 114.787 290.759 114.425 290.73C114.064 290.701 113.738 290.679 113.449 290.665L113.297 288.929C113.775 289.016 114.237 289.081 114.686 289.125C115.134 289.168 115.503 289.19 115.792 289.19C116.081 289.19 116.291 289.125 116.421 288.994C116.551 288.85 116.623 288.64 116.638 288.365C116.638 288.163 116.638 287.816 116.638 287.324C116.638 286.818 116.638 286.24 116.638 285.589C116.638 284.924 116.638 284.23 116.638 283.507C116.638 282.769 116.638 282.075 116.638 281.424C116.638 280.759 116.638 280.188 116.638 279.711C116.638 279.233 116.638 278.908 116.638 278.735C116.638 278.489 116.638 278.12 116.638 277.628C116.638 277.137 116.638 276.623 116.638 276.088C116.638 275.539 116.638 275.076 116.638 274.7C116.638 274.469 116.616 274.194 116.573 273.876C116.544 273.558 116.515 273.319 116.486 273.16H118.525ZM108.764 276.826C109.068 276.855 109.364 276.884 109.653 276.913C109.942 276.927 110.261 276.934 110.608 276.934C110.781 276.934 111.135 276.934 111.67 276.934C112.206 276.934 112.849 276.934 113.601 276.934C114.367 276.934 115.184 276.934 116.052 276.934C116.92 276.934 117.787 276.934 118.655 276.934C119.537 276.934 120.354 276.934 121.106 276.934C121.873 276.934 122.516 276.934 123.037 276.934C123.572 276.934 123.933 276.934 124.121 276.934C124.381 276.934 124.671 276.927 124.989 276.913C125.321 276.884 125.625 276.855 125.9 276.826V278.626C125.611 278.612 125.307 278.604 124.989 278.604C124.685 278.59 124.403 278.583 124.143 278.583C123.955 278.583 123.593 278.583 123.058 278.583C122.538 278.583 121.894 278.583 121.128 278.583C120.376 278.583 119.566 278.583 118.698 278.583C117.831 278.583 116.963 278.583 116.095 278.583C115.228 278.583 114.411 278.583 113.644 278.583C112.878 278.583 112.227 278.583 111.692 278.583C111.172 278.583 110.81 278.583 110.608 278.583C110.289 278.583 109.971 278.59 109.653 278.604C109.35 278.604 109.053 278.619 108.764 278.648V276.826ZM113.753 281.923C113.521 282.386 113.232 282.892 112.885 283.442C112.553 283.991 112.184 284.548 111.779 285.112C111.388 285.661 110.998 286.175 110.608 286.652C110.232 287.129 109.892 287.534 109.588 287.867L108.091 286.869C108.453 286.536 108.829 286.138 109.219 285.676C109.61 285.199 109.993 284.7 110.369 284.179C110.759 283.658 111.114 283.145 111.432 282.639C111.75 282.118 112.018 281.634 112.234 281.186L113.753 281.923ZM122.82 281.207C123.109 281.554 123.42 281.967 123.752 282.444C124.099 282.921 124.447 283.434 124.794 283.984C125.155 284.519 125.488 285.039 125.791 285.546C126.095 286.037 126.355 286.478 126.572 286.869L124.967 287.758C124.765 287.324 124.512 286.847 124.208 286.326C123.919 285.806 123.608 285.278 123.275 284.743C122.943 284.208 122.603 283.702 122.256 283.225C121.923 282.747 121.619 282.335 121.345 281.988L122.82 281.207ZM130.672 280.492C130.889 280.506 131.156 280.528 131.474 280.557C131.793 280.571 132.14 280.586 132.516 280.6C132.906 280.6 133.297 280.6 133.687 280.6C133.918 280.6 134.273 280.6 134.75 280.6C135.241 280.6 135.813 280.6 136.463 280.6C137.114 280.6 137.801 280.6 138.524 280.6C139.262 280.6 139.992 280.6 140.715 280.6C141.452 280.6 142.146 280.6 142.797 280.6C143.462 280.6 144.034 280.6 144.511 280.6C144.988 280.6 145.342 280.6 145.574 280.6C146.123 280.6 146.593 280.586 146.984 280.557C147.374 280.528 147.685 280.506 147.916 280.492V282.617C147.699 282.603 147.374 282.581 146.94 282.552C146.521 282.523 146.073 282.509 145.595 282.509C145.364 282.509 145.002 282.509 144.511 282.509C144.019 282.509 143.448 282.509 142.797 282.509C142.161 282.509 141.474 282.509 140.737 282.509C139.999 282.509 139.262 282.509 138.524 282.509C137.801 282.509 137.114 282.509 136.463 282.509C135.827 282.509 135.263 282.509 134.772 282.509C134.28 282.509 133.918 282.509 133.687 282.509C133.094 282.509 132.53 282.523 131.995 282.552C131.46 282.567 131.019 282.588 130.672 282.617V280.492ZM157.46 287.975C157.46 287.773 157.46 287.368 157.46 286.76C157.46 286.138 157.46 285.408 157.46 284.569C157.46 283.716 157.46 282.827 157.46 281.901C157.46 280.962 157.46 280.05 157.46 279.168C157.46 278.286 157.46 277.505 157.46 276.826C157.46 276.146 157.46 275.654 157.46 275.351C157.46 275.047 157.446 274.678 157.417 274.245C157.388 273.811 157.345 273.427 157.287 273.095H159.413C159.384 273.413 159.348 273.789 159.304 274.223C159.275 274.657 159.261 275.033 159.261 275.351C159.261 275.915 159.261 276.594 159.261 277.39C159.261 278.171 159.261 279.009 159.261 279.906C159.261 280.788 159.261 281.67 159.261 282.552C159.275 283.42 159.282 284.237 159.282 285.003C159.282 285.755 159.282 286.399 159.282 286.934C159.282 287.454 159.282 287.801 159.282 287.975C159.282 288.206 159.282 288.474 159.282 288.778C159.297 289.081 159.319 289.392 159.348 289.71C159.376 290.014 159.398 290.289 159.413 290.535H157.309C157.366 290.187 157.403 289.775 157.417 289.298C157.446 288.821 157.46 288.38 157.46 287.975ZM158.892 278.778C159.601 278.995 160.381 279.255 161.235 279.559C162.102 279.848 162.984 280.159 163.881 280.492C164.778 280.824 165.623 281.164 166.419 281.511C167.229 281.844 167.93 282.162 168.523 282.465L167.785 284.309C167.164 283.962 166.462 283.622 165.681 283.29C164.9 282.943 164.098 282.603 163.274 282.27C162.464 281.938 161.676 281.641 160.909 281.381C160.157 281.106 159.485 280.882 158.892 280.708V278.778ZM190.518 275.459C190.445 275.618 190.38 275.785 190.322 275.958C190.279 276.132 190.236 276.327 190.192 276.544C190.077 277.122 189.925 277.758 189.737 278.453C189.549 279.132 189.317 279.841 189.043 280.578C188.782 281.301 188.471 282.01 188.11 282.704C187.763 283.384 187.38 283.998 186.96 284.548C186.295 285.387 185.558 286.175 184.748 286.912C183.938 287.635 183.012 288.286 181.971 288.864C180.93 289.443 179.744 289.942 178.414 290.361L176.939 288.734C178.356 288.373 179.578 287.939 180.605 287.433C181.646 286.912 182.557 286.319 183.338 285.654C184.119 284.989 184.806 284.273 185.399 283.507C185.919 282.856 186.367 282.111 186.743 281.272C187.134 280.434 187.452 279.595 187.698 278.756C187.958 277.903 188.139 277.129 188.24 276.435C188.038 276.435 187.654 276.435 187.09 276.435C186.526 276.435 185.861 276.435 185.095 276.435C184.328 276.435 183.526 276.435 182.687 276.435C181.863 276.435 181.068 276.435 180.301 276.435C179.535 276.435 178.869 276.435 178.306 276.435C177.742 276.435 177.358 276.435 177.156 276.435C176.722 276.435 176.324 276.443 175.963 276.457C175.601 276.471 175.276 276.486 174.987 276.5V274.592C175.189 274.606 175.413 274.628 175.659 274.657C175.905 274.686 176.158 274.707 176.418 274.722C176.679 274.722 176.925 274.722 177.156 274.722C177.329 274.722 177.64 274.722 178.089 274.722C178.537 274.722 179.065 274.722 179.672 274.722C180.294 274.722 180.952 274.722 181.646 274.722C182.355 274.722 183.049 274.722 183.728 274.722C184.422 274.722 185.066 274.722 185.659 274.722C186.266 274.722 186.78 274.722 187.199 274.722C187.618 274.722 187.9 274.722 188.045 274.722C188.204 274.722 188.385 274.722 188.587 274.722C188.79 274.707 188.992 274.671 189.194 274.613L190.518 275.459ZM207.654 276.609C207.625 276.84 207.603 277.086 207.589 277.346C207.574 277.592 207.567 277.838 207.567 278.084C207.581 278.402 207.589 278.836 207.589 279.385C207.603 279.935 207.617 280.564 207.632 281.272C207.646 281.967 207.661 282.697 207.675 283.463C207.69 284.23 207.697 284.996 207.697 285.762C207.711 286.514 207.726 287.237 207.74 287.932C207.755 288.611 207.762 289.211 207.762 289.732C207.777 290.195 207.625 290.556 207.307 290.817C207.003 291.091 206.612 291.229 206.135 291.229C205.86 291.229 205.528 291.221 205.137 291.207C204.747 291.192 204.364 291.171 203.988 291.142C203.612 291.127 203.279 291.113 202.99 291.098L202.903 289.515C203.337 289.573 203.807 289.623 204.313 289.667C204.819 289.696 205.231 289.71 205.55 289.71C205.752 289.71 205.897 289.652 205.983 289.537C206.085 289.421 206.135 289.269 206.135 289.081C206.135 288.647 206.128 288.127 206.114 287.519C206.114 286.898 206.106 286.232 206.092 285.524C206.092 284.801 206.085 284.071 206.07 283.333C206.056 282.596 206.041 281.887 206.027 281.207C206.027 280.528 206.02 279.92 206.005 279.385C205.991 278.836 205.976 278.402 205.962 278.084C205.962 277.881 205.947 277.65 205.918 277.39C205.889 277.115 205.853 276.855 205.81 276.609H207.654ZM197.893 279.754C198.138 279.783 198.399 279.805 198.673 279.819C198.963 279.834 199.237 279.841 199.498 279.841C199.628 279.841 199.91 279.841 200.344 279.841C200.792 279.841 201.334 279.841 201.971 279.841C202.607 279.841 203.286 279.841 204.009 279.841C204.747 279.841 205.484 279.841 206.222 279.841C206.959 279.841 207.639 279.841 208.261 279.841C208.897 279.841 209.432 279.841 209.866 279.841C210.314 279.841 210.604 279.841 210.734 279.841C210.951 279.841 211.204 279.834 211.493 279.819C211.797 279.79 212.028 279.769 212.187 279.754V281.468C211.999 281.453 211.768 281.439 211.493 281.424C211.233 281.41 210.994 281.403 210.777 281.403C210.661 281.403 210.387 281.403 209.953 281.403C209.519 281.403 208.977 281.403 208.326 281.403C207.69 281.403 207.003 281.403 206.265 281.403C205.528 281.403 204.783 281.403 204.031 281.403C203.294 281.403 202.6 281.403 201.949 281.403C201.313 281.403 200.778 281.403 200.344 281.403C199.91 281.403 199.642 281.403 199.541 281.403C199.252 281.403 198.97 281.41 198.695 281.424C198.42 281.439 198.153 281.46 197.893 281.489V279.754ZM197.307 288.04C198.175 287.621 199.035 287.122 199.888 286.543C200.756 285.965 201.566 285.35 202.318 284.7C203.07 284.049 203.728 283.398 204.291 282.747C204.87 282.097 205.318 281.489 205.636 280.925H206.504L206.547 282.249C206.258 282.769 205.832 283.355 205.268 284.006C204.718 284.642 204.075 285.293 203.337 285.958C202.6 286.608 201.819 287.237 200.994 287.845C200.17 288.438 199.346 288.951 198.522 289.385L197.307 288.04ZM232.056 273.42C232.042 273.695 232.027 273.991 232.013 274.31C231.998 274.613 231.991 274.946 231.991 275.307C231.991 275.597 231.991 275.965 231.991 276.414C231.991 276.862 231.991 277.31 231.991 277.758C231.991 278.192 231.991 278.547 231.991 278.821C231.991 280.123 231.94 281.229 231.839 282.14C231.752 283.051 231.615 283.832 231.427 284.483C231.254 285.119 231.022 285.683 230.733 286.175C230.444 286.666 230.104 287.143 229.713 287.606C229.251 288.156 228.716 288.64 228.108 289.06C227.515 289.464 226.908 289.804 226.286 290.079C225.664 290.368 225.086 290.6 224.551 290.773L223.141 289.276C224.139 289.031 225.079 288.684 225.961 288.235C226.857 287.773 227.646 287.158 228.325 286.392C228.716 285.943 229.027 285.488 229.258 285.025C229.504 284.548 229.685 284.02 229.8 283.442C229.93 282.863 230.017 282.191 230.06 281.424C230.104 280.658 230.126 279.761 230.126 278.735C230.126 278.445 230.126 278.084 230.126 277.65C230.126 277.216 230.126 276.782 230.126 276.349C230.126 275.9 230.126 275.553 230.126 275.307C230.126 274.946 230.111 274.613 230.082 274.31C230.068 273.991 230.046 273.695 230.017 273.42H232.056ZM221.991 273.594C221.977 273.796 221.955 274.042 221.926 274.331C221.912 274.62 221.905 274.895 221.905 275.156C221.905 275.257 221.905 275.488 221.905 275.85C221.905 276.197 221.905 276.616 221.905 277.108C221.905 277.599 221.905 278.12 221.905 278.669C221.905 279.219 221.905 279.754 221.905 280.275C221.905 280.781 221.905 281.222 221.905 281.598C221.905 281.974 221.905 282.241 221.905 282.4C221.905 282.675 221.912 282.972 221.926 283.29C221.955 283.593 221.977 283.846 221.991 284.049H219.996C220.025 283.875 220.046 283.637 220.061 283.333C220.09 283.015 220.104 282.697 220.104 282.379C220.104 282.234 220.104 281.974 220.104 281.598C220.104 281.207 220.104 280.759 220.104 280.253C220.104 279.747 220.104 279.219 220.104 278.669C220.104 278.12 220.104 277.599 220.104 277.108C220.104 276.616 220.104 276.197 220.104 275.85C220.104 275.488 220.104 275.257 220.104 275.156C220.104 274.968 220.097 274.714 220.083 274.396C220.068 274.064 220.046 273.796 220.018 273.594H221.991ZM251.231 272.9C251.188 273.189 251.151 273.493 251.123 273.811C251.108 274.114 251.101 274.418 251.101 274.722C251.115 275.112 251.123 275.64 251.123 276.305C251.137 276.956 251.151 277.693 251.166 278.518C251.18 279.342 251.195 280.21 251.209 281.121C251.224 282.032 251.238 282.943 251.253 283.854C251.267 284.765 251.282 285.64 251.296 286.478C251.311 287.317 251.318 288.076 251.318 288.756C251.318 289.32 251.151 289.746 250.819 290.036C250.486 290.339 249.995 290.491 249.344 290.491C248.794 290.491 248.209 290.477 247.587 290.448C246.98 290.433 246.408 290.404 245.873 290.361L245.721 288.582C246.242 288.669 246.777 288.734 247.327 288.778C247.891 288.821 248.375 288.843 248.78 288.843C249.084 288.843 249.293 288.77 249.409 288.626C249.525 288.481 249.582 288.264 249.582 287.975C249.582 287.454 249.582 286.825 249.582 286.088C249.582 285.35 249.575 284.555 249.561 283.702C249.561 282.834 249.554 281.959 249.539 281.077C249.525 280.195 249.51 279.349 249.496 278.539C249.481 277.715 249.467 276.97 249.452 276.305C249.452 275.64 249.438 275.112 249.409 274.722C249.38 274.302 249.351 273.955 249.322 273.681C249.293 273.391 249.257 273.131 249.214 272.9H251.231ZM239.583 276.696C239.901 276.725 240.226 276.753 240.559 276.782C240.906 276.811 241.246 276.826 241.578 276.826C241.738 276.826 242.07 276.826 242.576 276.826C243.082 276.826 243.704 276.826 244.442 276.826C245.179 276.826 245.967 276.826 246.806 276.826C247.645 276.826 248.483 276.826 249.322 276.826C250.175 276.826 250.963 276.826 251.687 276.826C252.424 276.826 253.046 276.826 253.552 276.826C254.058 276.826 254.391 276.826 254.55 276.826C254.839 276.826 255.164 276.811 255.526 276.782C255.902 276.739 256.191 276.71 256.393 276.696V278.518C256.148 278.503 255.851 278.496 255.504 278.496C255.172 278.482 254.875 278.474 254.615 278.474C254.47 278.474 254.145 278.474 253.639 278.474C253.147 278.474 252.525 278.474 251.773 278.474C251.036 278.474 250.24 278.474 249.387 278.474C248.549 278.474 247.695 278.474 246.828 278.474C245.975 278.474 245.179 278.474 244.442 278.474C243.704 278.474 243.082 278.474 242.576 278.474C242.07 278.474 241.752 278.474 241.622 278.474C241.26 278.474 240.913 278.482 240.581 278.496C240.248 278.496 239.915 278.51 239.583 278.539V276.696ZM238.78 286.825C239.937 286.276 241.036 285.64 242.077 284.917C243.133 284.179 244.109 283.42 245.006 282.639C245.902 281.844 246.69 281.063 247.37 280.296C248.05 279.515 248.585 278.8 248.975 278.149L249.843 278.127L249.864 279.602C249.46 280.238 248.917 280.947 248.238 281.728C247.558 282.494 246.777 283.275 245.895 284.071C245.027 284.851 244.087 285.603 243.075 286.326C242.077 287.049 241.065 287.686 240.038 288.235L238.78 286.825Z" fill="#111111"/>
</svg>
